<svg width="45" height="44" viewBox="0 0 45 44" fill="none" xmlns="http://www.w3.org/2000/svg">
<path d="M22.5 0C34.9313 0 45 10.094 45 22.5565C44.9988 27.2826 43.5192 31.8894 40.7695 35.7284C38.0199 39.5674 34.1385 42.4452 29.6719 43.9569C28.5469 44.1825 28.125 43.4776 28.125 42.8855C28.125 42.1242 28.1531 39.6994 28.1531 36.6824C28.1531 34.5678 27.45 33.2144 26.6344 32.5095C31.6406 31.9456 36.9 30.0283 36.9 21.3722C36.9 18.891 36.0281 16.8892 34.5938 15.3102C34.8187 14.7463 35.6063 12.4342 34.3688 9.33274C34.3688 9.33274 32.4844 8.71243 28.1813 11.6448C26.3813 11.1373 24.4688 10.8835 22.5563 10.8835C20.6438 10.8835 18.7313 11.1373 16.9313 11.6448C12.6281 8.74063 10.7438 9.33274 10.7438 9.33274C9.50625 12.4342 10.2938 14.7463 10.5188 15.3102C9.08438 16.8892 8.2125 18.9192 8.2125 21.3722C8.2125 30.0001 13.4438 31.9456 18.45 32.5095C17.8031 33.0734 17.2125 34.0603 17.0156 35.5264C15.7219 36.1185 12.4875 37.0772 10.4625 33.6655C10.0406 32.9888 8.775 31.3253 7.00313 31.3535C5.11875 31.3817 6.24375 32.4249 7.03125 32.8478C7.9875 33.3836 9.08438 35.3855 9.3375 36.034C9.7875 37.3027 11.25 39.7276 16.9031 38.6843C16.9031 40.5734 16.9313 42.3498 16.9313 42.8855C16.9313 43.4776 16.5094 44.1543 15.3844 43.9569C10.903 42.4615 7.00519 39.5895 4.24375 35.7482C1.48232 31.9069 -0.00247635 27.2914 3.10025e-06 22.5565C3.10025e-06 10.094 10.0688 0 22.5 0Z" fill="#161616"/>
</svg>
