<svg width="115" height="31" viewBox="0 0 115 31" fill="none" xmlns="http://www.w3.org/2000/svg">
<path d="M12.1644 30.6C10.031 30.6 8.10438 30.2267 6.38438 29.48C4.67771 28.72 3.27104 27.64 2.16438 26.24C1.07104 24.8267 0.377708 23.1467 0.0843751 21.2L5.76438 20.36C6.16438 22.0133 6.99104 23.2867 8.24438 24.18C9.49771 25.0733 10.9244 25.52 12.5244 25.52C13.4177 25.52 14.2844 25.38 15.1244 25.1C15.9644 24.82 16.651 24.4067 17.1844 23.86C17.731 23.3133 18.0044 22.64 18.0044 21.84C18.0044 21.5467 17.9577 21.2667 17.8644 21C17.7844 20.72 17.6444 20.46 17.4444 20.22C17.2444 19.98 16.9577 19.7533 16.5844 19.54C16.2244 19.3267 15.7644 19.1333 15.2044 18.96L7.72438 16.76C7.16438 16.6 6.51104 16.3733 5.76438 16.08C5.03104 15.7867 4.31771 15.3667 3.62437 14.82C2.93104 14.2733 2.35104 13.5533 1.88438 12.66C1.43104 11.7533 1.20438 10.6133 1.20438 9.24C1.20438 7.30666 1.69104 5.7 2.66438 4.42C3.63771 3.14 4.93771 2.18666 6.56438 1.56C8.19104 0.933332 9.99104 0.626665 11.9644 0.639999C13.951 0.666665 15.7244 1.00667 17.2844 1.66C18.8444 2.31333 20.151 3.26667 21.2044 4.52C22.2577 5.76 23.0177 7.28 23.4844 9.08L17.6044 10.08C17.391 9.14666 16.9977 8.36 16.4244 7.72C15.851 7.08 15.1644 6.59333 14.3644 6.26C13.5777 5.92667 12.751 5.74667 11.8844 5.72C11.031 5.69333 10.2244 5.81333 9.46438 6.08C8.71771 6.33333 8.10438 6.70667 7.62438 7.2C7.15771 7.69333 6.92438 8.28 6.92438 8.96C6.92438 9.58667 7.11771 10.1 7.50438 10.5C7.89104 10.8867 8.37771 11.2 8.96438 11.44C9.55104 11.68 10.151 11.88 10.7644 12.04L15.7644 13.4C16.511 13.6 17.3377 13.8667 18.2444 14.2C19.151 14.52 20.0177 14.9733 20.8444 15.56C21.6844 16.1333 22.371 16.8933 22.9044 17.84C23.451 18.7867 23.7244 19.9867 23.7244 21.44C23.7244 22.9867 23.3977 24.34 22.7444 25.5C22.1044 26.6467 21.2377 27.6 20.1444 28.36C19.051 29.1067 17.811 29.6667 16.4244 30.04C15.051 30.4133 13.631 30.6 12.1644 30.6ZM42.8403 30V19.8C42.8403 19.3067 42.8136 18.68 42.7603 17.92C42.707 17.1467 42.5403 16.3733 42.2603 15.6C41.9803 14.8267 41.5203 14.18 40.8803 13.66C40.2536 13.14 39.3603 12.88 38.2003 12.88C37.7336 12.88 37.2336 12.9533 36.7003 13.1C36.167 13.2467 35.667 13.5333 35.2003 13.96C34.7336 14.3733 34.347 14.9867 34.0403 15.8C33.747 16.6133 33.6003 17.6933 33.6003 19.04L30.4803 17.56C30.4803 15.8533 30.827 14.2533 31.5203 12.76C32.2136 11.2667 33.2536 10.06 34.6403 9.14C36.0403 8.22 37.8003 7.76 39.9203 7.76C41.6136 7.76 42.9936 8.04667 44.0603 8.62C45.127 9.19333 45.9536 9.92 46.5403 10.8C47.1403 11.68 47.567 12.6 47.8203 13.56C48.0736 14.5067 48.227 15.3733 48.2803 16.16C48.3336 16.9467 48.3603 17.52 48.3603 17.88V30H42.8403ZM28.0803 30V1.2H32.9203V16H33.6003V30H28.0803ZM63.59 30.6C61.3767 30.6 59.4233 30.1267 57.73 29.18C56.05 28.22 54.73 26.9067 53.77 25.24C52.8233 23.56 52.35 21.64 52.35 19.48C52.35 17.12 52.8167 15.0667 53.75 13.32C54.6833 11.5733 55.97 10.22 57.61 9.26C59.25 8.28667 61.1367 7.8 63.27 7.8C65.5367 7.8 67.4633 8.33333 69.05 9.4C70.6367 10.4667 71.81 11.9667 72.57 13.9C73.33 15.8333 73.5967 18.1067 73.37 20.72H67.99V18.72C67.99 16.52 67.6367 14.94 66.93 13.98C66.2367 13.0067 65.0967 12.52 63.51 12.52C61.6567 12.52 60.29 13.0867 59.41 14.22C58.5433 15.34 58.11 17 58.11 19.2C58.11 21.2133 58.5433 22.7733 59.41 23.88C60.29 24.9733 61.5767 25.52 63.27 25.52C64.3367 25.52 65.25 25.2867 66.01 24.82C66.77 24.3533 67.35 23.68 67.75 22.8L73.19 24.36C72.3767 26.3333 71.09 27.8667 69.33 28.96C67.5833 30.0533 65.67 30.6 63.59 30.6ZM56.43 20.72V16.68H70.75V20.72H56.43ZM77.8859 30V8.4H82.6859V13.68L82.1659 13C82.4459 12.2533 82.8193 11.5733 83.2859 10.96C83.7526 10.3467 84.3259 9.84 85.0059 9.44C85.5259 9.12 86.0926 8.87333 86.7059 8.7C87.3193 8.51333 87.9526 8.4 88.6059 8.36C89.2593 8.30667 89.9126 8.32 90.5659 8.4V13.48C89.9659 13.2933 89.2659 13.2333 88.4659 13.3C87.6793 13.3533 86.9659 13.5333 86.3259 13.84C85.6859 14.1333 85.1459 14.5267 84.7059 15.02C84.2659 15.5 83.9326 16.0733 83.7059 16.74C83.4793 17.3933 83.3659 18.1333 83.3659 18.96V30H77.8859ZM104.02 30.6C101.806 30.6 99.853 30.1267 98.1597 29.18C96.4797 28.22 95.1597 26.9067 94.1997 25.24C93.253 23.56 92.7797 21.64 92.7797 19.48C92.7797 17.12 93.2464 15.0667 94.1797 13.32C95.113 11.5733 96.3997 10.22 98.0397 9.26C99.6797 8.28667 101.566 7.8 103.7 7.8C105.966 7.8 107.893 8.33333 109.48 9.4C111.066 10.4667 112.24 11.9667 113 13.9C113.76 15.8333 114.026 18.1067 113.8 20.72H108.42V18.72C108.42 16.52 108.066 14.94 107.36 13.98C106.666 13.0067 105.526 12.52 103.94 12.52C102.086 12.52 100.72 13.0867 99.8397 14.22C98.973 15.34 98.5397 17 98.5397 19.2C98.5397 21.2133 98.973 22.7733 99.8397 23.88C100.72 24.9733 102.006 25.52 103.7 25.52C104.766 25.52 105.68 25.2867 106.44 24.82C107.2 24.3533 107.78 23.68 108.18 22.8L113.62 24.36C112.806 26.3333 111.52 27.8667 109.76 28.96C108.013 30.0533 106.1 30.6 104.02 30.6ZM96.8597 20.72V16.68H111.18V20.72H96.8597Z" fill="#47F1A0"/>
</svg>
